<?xml version="1.0" standalone="no"?><!DOCTYPE svg PUBLIC "-//W3C//DTD SVG 1.1//EN" "http://www.w3.org/Graphics/SVG/1.1/DTD/svg11.dtd"><svg t="1786952740662" class="icon" viewBox="0 0 1024 1024" version="1.1" xmlns="http://www.w3.org/2000/svg" p-id="12166" xmlns:xlink="http://www.w3.org/1999/xlink" width="200" height="200"><path d="M514.753422 0.546133L967.111111 113.777778c0 136.8064-7.5776 288.494933-22.755555 455.111111-11.628089 127.726933-101.876622 243.780267-198.8608 326.724267l-12.674845 10.626844c-10.581333 8.715378-21.230933 16.9984-31.812267 24.871822l-12.674844 9.216a809.870222 809.870222 0 0 1-6.303289 4.460089l-12.515555 8.6016-12.401778 8.146489c-2.048 1.319822-4.096 2.639644-6.144 3.913956l-12.128711 7.486577c-4.004978 2.412089-7.964444 4.755911-11.901156 7.008711l-11.628089 6.530845c-5.757156 3.140267-11.377778 6.098489-16.907378 8.874667l-10.831644 5.302044-5.279289 2.4576-10.24 4.551111-9.807644 3.982222c-20.753067 8.078222-38.161067 12.356267-50.631111 12.356267-6.712889 0-14.859378-1.092267-24.189156-3.231289l-8.260267-2.093511-8.829155-2.594133a314.254222 314.254222 0 0 1-14.153956-4.846934l-10.012444-3.845689c-1.706667-0.682667-3.436089-1.365333-5.165511-2.093511l-10.6496-4.573866a495.388444 495.388444 0 0 1-5.461334-2.480356l-11.150222-5.279289a574.896356 574.896356 0 0 1-11.4688-5.779911l-11.764622-6.235022a640.978489 640.978489 0 0 1-5.961956-3.2768l-12.105955-6.940445-12.288-7.3728-12.447289-7.805155a726.789689 726.789689 0 0 1-12.561067-8.260267l-12.652089-8.715378a740.898133 740.898133 0 0 1-44.396089-33.792l-12.583822-10.581333C173.624889 815.104 90.749156 703.305956 79.644444 568.888889l-1.592888-19.524267-4.437334-57.116444-2.685155-36.841245-2.434845-35.885511L66.286933 384.568889l-1.956977-33.951289-0.910223-16.611556-1.615644-32.540444-1.410845-31.516444-1.137777-30.583467-0.932978-29.582222-0.705422-28.672-0.455111-27.670756-0.227556-26.692267C56.888889 122.402133 56.888889 118.078578 56.888889 113.777778L510.338844 0.546133a9.102222 9.102222 0 0 1 4.414578 0z m-2.2528 58.072178L114.096356 158.1056l0.136533 8.351289c0.159289 9.511822 0.364089 19.205689 0.6144 29.0816l0.864711 30.151111 1.092267 31.197867 0.659911 16.019911 1.479111 32.790755 1.752178 33.883023 1.979733 34.929777 2.2528 35.999289 2.503111 37.046045 2.730667 38.115555 3.003733 39.185067 3.185778 39.344355c8.8064 106.496 72.362667 207.894756 172.077511 291.817245 40.914489 34.451911 85.765689 63.761067 127.726933 84.559644 7.691378 3.822933 15.132444 7.236267 22.186667 10.262756l10.24 4.232533c3.299556 1.319822 6.485333 2.525867 9.557333 3.640889l8.715378 2.980978c11.0592 3.572622 19.683556 5.415822 24.758045 5.415822 3.140267 0 8.192-1.024 14.700088-3.026489l7.008712-2.321066 7.896177-2.958223c4.164267-1.6384 8.624356-3.504356 13.334756-5.597866l9.739378-4.482845 5.074489-2.4576 10.581333-5.393066 5.461333-2.889956c41.756444-22.573511 87.2448-54.226489 129.001245-90.680889 100.010667-87.313067 164.590933-187.960889 173.283555-283.579733 12.515556-137.466311 19.820089-264.556089 21.9136-381.201067l0.318578-24.416711-397.425778-99.487289z" fill="#2c2c2c" p-id="12167"></path><path d="M307.2 273.066667h102.4v409.6H307.2zM614.4 273.066667H716.8v409.6h-102.4z" fill="#2c2c2c" p-id="12168"></path><path d="M624.64 406.186667v102.4h-225.28v-102.4z" fill="#2c2c2c" p-id="12169"></path></svg>